HIERARCHY
ROOT Hips
{
	OFFSET	0.00	0.00	0.00
	CHANNELS 6 Xposition Yposition Zposition Zrotation Xrotation Yrotation
	JOINT LeftUpLeg
	{
		OFFSET	 0.126116	-0.014019	-0.065224
		CHANNELS 3 Zrotation Xrotation Yrotation
		JOINT LeftLeg
		{
			OFFSET	 0.000000	 0.000000	 0.569914
			CHANNELS 3 Zrotation Xrotation Yrotation
			JOINT LeftFoot
			{
				OFFSET	 0.000000	 0.000000	 0.544423
				CHANNELS 3 Zrotation Xrotation Yrotation
				JOINT LeftToeBase
				{
					OFFSET	 0.000000	 0.000000	 0.207117
					CHANNELS 3 Zrotation Xrotation Yrotation
					End Site
					{
						OFFSET	 0.000000	 0.000000	 0.207117
					}
				}
			}
		}
	}
	JOINT RightUpLeg
	{
		OFFSET	-0.124023	-0.008373	-0.065224
		CHANNELS 3 Zrotation Xrotation Yrotation
		JOINT RightLeg
		{
			OFFSET	 0.000000	 0.000000	 0.570047
			CHANNELS 3 Zrotation Xrotation Yrotation
			JOINT RightFoot
			{
				OFFSET	 0.000000	 0.000000	 0.544354
				CHANNELS 3 Zrotation Xrotation Yrotation
				JOINT RightToeBase
				{
					OFFSET	 0.000000	 0.000000	 0.207540
					CHANNELS 3 Zrotation Xrotation Yrotation
					End Site
					{
						OFFSET	 0.000000	 0.000000	 0.207540
					}
				}
			}
		}
	}
	JOINT Spine
	{
		OFFSET	 0.000184	-0.007763	 0.117403
		CHANNELS 3 Zrotation Xrotation Yrotation
		JOINT Spine1
		{
			OFFSET	 0.000000	 0.000000	 0.137269
			CHANNELS 3 Zrotation Xrotation Yrotation
			JOINT Spine2
			{
				OFFSET	 0.000000	 0.000000	 0.156879
				CHANNELS 3 Zrotation Xrotation Yrotation
				JOINT LeftShoulder
				{
					OFFSET	 0.080501	-0.002496	 0.160144
					CHANNELS 3 Zrotation Xrotation Yrotation
					JOINT LeftArm
					{
						OFFSET	 0.000000	 0.000000	 0.164363
						CHANNELS 3 Zrotation Xrotation Yrotation
						JOINT LeftForeArm
						{
							OFFSET	 0.000000	 0.000000	 0.364576
							CHANNELS 3 Zrotation Xrotation Yrotation
							JOINT LeftHand
							{
								OFFSET	 0.000000	 0.000000	 0.360812
								CHANNELS 3 Zrotation Xrotation Yrotation
								JOINT LeftHandIndex1
								{
									OFFSET	 0.000000	 0.000000	 0.086006
									CHANNELS 3 Zrotation Xrotation Yrotation
									JOINT LeftHandIndex2
									{
										OFFSET	 0.000000	 0.000000	 0.047236
										CHANNELS 3 Zrotation Xrotation Yrotation
										JOINT LeftHandIndex3
										{
											OFFSET	-0.004284	-0.000551	 0.038166
											CHANNELS 3 Zrotation Xrotation Yrotation
											End Site
											{
												OFFSET	-0.004284	-0.000551	 0.038166
											}
										}
									}
								}
							}
						}
					}
				}
				JOINT Neck
				{
					OFFSET	 0.000000	 0.000000	 0.176489
					CHANNELS 3 Zrotation Xrotation Yrotation
					JOINT Head
					{
						OFFSET	 0.000000	-0.001747	 0.077940
						CHANNELS 3 Zrotation Xrotation Yrotation
						End Site
						{
							OFFSET	 0.000000	-0.001747	 0.077940
						}
					}
				}
				JOINT RightShoulder
				{
					OFFSET	-0.080363	 0.000306	 0.159706
					CHANNELS 3 Zrotation Xrotation Yrotation
					JOINT RightArm
					{
						OFFSET	 0.000000	 0.000000	 0.164196
						CHANNELS 3 Zrotation Xrotation Yrotation
						JOINT RightForeArm
						{
							OFFSET	 0.000000	 0.000000	 0.365611
							CHANNELS 3 Zrotation Xrotation Yrotation
							JOINT RightHand
							{
								OFFSET	 0.000000	 0.000000	 0.360648
								CHANNELS 3 Zrotation Xrotation Yrotation
								JOINT RightHandIndex1
								{
									OFFSET	 0.000000	 0.000000	 0.069977
									CHANNELS 3 Zrotation Xrotation Yrotation
									JOINT RightHandIndex2
									{
										OFFSET	 0.000000	 0.000000	 0.052305
										CHANNELS 3 Zrotation Xrotation Yrotation
										JOINT RightHandIndex3
										{
											OFFSET	 0.009002	-0.000782	 0.042196
											CHANNELS 3 Zrotation Xrotation Yrotation
											End Site
											{
												OFFSET	 0.009002	-0.000782	 0.042196
											}
										}
									}
								}
							}
						}
					}
				}
			}
		}
	}
}
MOTION
Frames:    8
Frame Time: 0.03333334
-0.000490	 0.030405	 1.268398	 0.004144	 0.007130	-0.099263	-13.287120	-2.904433	 179.940200	 1.436890	-14.567140	-0.856591	-5.008626	 72.790540	-1.334822	-2.385833	 28.452760	 0.000004	 13.189680	-4.023304	-179.638700	-1.407260	-15.638760	 0.905777	 5.300669	 72.731400	 0.851547	 2.384658	 28.388730	 0.000004	 2.191479	 2.751877	-0.022380	 1.197185	 3.571037	 0.490257	-3.598160	-4.496927	-0.790847	-91.776160	 78.527450	 180.000000	 66.926250	 45.829170	-50.575370	-8.168862	 0.190245	-0.474586	-30.237990	-19.244000	-4.500584	-2.635965	 4.993658	 6.788941	-5.165319	 0.784187	 3.516649	-5.225038	 0.466231	 0.424329	-0.000002	-3.783157	-0.089647	-3.490925	 4.991443	 0.152188	 89.782160	 78.203890	 179.999900	 9.010176	 13.394020	 86.161920	-33.733910	-4.731687	 14.194090	 1.330048	-19.712470	-6.505982	 6.112037	 4.509576	-0.364401	 4.968462	 1.518543	-9.347576	 5.168945	 0.703820	 2.021906
-0.000406	 0.033342	 1.269059	 0.003893	 0.008894	-0.055997	-13.289980	-2.725329	 179.875100	 1.443336	-14.142570	-0.830566	-4.916928	 72.538840	-1.430120	-2.385833	 28.452760	 0.000004	 13.194010	-3.969115	-179.625200	-1.414384	-15.197340	 0.878952	 5.274943	 72.356070	 0.872224	 2.384658	 28.388730	 0.000004	 1.203109	 2.745401	-0.004879	 0.695808	 3.573465	 0.350927	-2.092608	-4.542512	-0.490801	-91.776120	 78.527450	 179.999900	 66.861950	 45.784190	-50.430430	-8.168351	 0.191430	-0.477543	-30.249910	-19.363660	-4.504162	-2.635965	 4.993658	 6.788941	-5.165319	 0.784187	 3.516649	-5.225038	 0.466231	 0.424329	-0.000002	-3.783157	-0.089647	-2.024710	 5.078168	 0.089780	 89.782080	 78.203890	-180.000000	 9.027693	 13.640150	 86.128820	-33.899890	-4.810151	 14.284400	 1.312687	-19.969410	-6.595977	 6.112037	 4.509576	-0.364401	 4.968462	 1.518543	-9.347576	 5.168945	 0.703820	 2.021906
-0.000309	 0.035789	 1.269614	 0.000917	 0.011178	-0.006130	-13.289390	-2.580357	 179.808300	 1.448362	-13.801800	-0.809744	-4.845552	 72.309030	-1.504130	-2.385833	 28.452760	 0.000004	 13.198820	-3.913752	-179.624000	-1.420627	-14.799320	 0.854857	 5.253067	 72.000970	 0.889282	 2.384658	 28.388730	 0.000004	 0.296208	 2.739537	 0.052226	 0.239941	 3.574306	 0.117672	-0.704332	-4.566298	-0.164380	-91.776150	 78.527470	 180.000000	 66.855090	 45.725780	-50.365730	-8.168729	 0.190475	-0.475269	-30.271750	-19.485680	-4.509461	-2.635965	 4.993658	 6.788941	-5.165319	 0.784187	 3.516649	-5.225038	 0.466231	 0.424329	-0.000002	-3.783157	-0.089647	-0.678382	 5.116986	 0.030299	 89.782040	 78.203870	-180.000000	 9.048175	 13.875210	 86.095260	-34.051910	-4.884425	 14.372240	 1.209543	-20.112000	-6.656120	 6.112037	 4.509576	-0.364401	 4.968462	 1.518543	-9.347576	 5.168945	 0.703820	 2.021906
-0.000164	 0.038711	 1.270207	-0.001782	 0.010276	 0.042753	-13.288230	-2.421096	 179.742300	 1.453771	-13.424820	-0.786780	-4.766223	 72.033770	-1.586404	-2.385833	 28.452760	 0.000004	 13.203620	-3.853201	-179.615400	-1.427505	-14.345910	 0.827521	 5.228633	 71.571500	 0.907886	 2.384658	 28.388730	 0.000004	-0.823158	 2.736954	 0.128624	-0.323460	 3.578146	-0.153763	 1.006343	-4.568962	 0.231142	-91.776180	 78.527470	 180.000000	 66.907380	 45.655490	-50.379140	-8.168694	 0.191189	-0.477029	-30.313740	-19.651720	-4.518717	-2.635965	 4.993658	 6.788941	-5.165319	 0.784187	 3.516649	-5.225038	 0.466231	 0.424329	-0.000002	-3.783157	-0.089647	 0.980378	 5.111278	-0.043773	 89.782190	 78.203890	 179.999900	 8.976587	 14.055400	 86.023490	-34.048050	-4.922272	 14.481700	 0.192603	-19.995690	-6.652570	 6.112037	 4.509576	-0.364401	 4.968462	 1.518543	-9.347576	 5.168945	 0.703820	 2.021906
-0.000012	 0.041096	 1.270519	-0.003387	 0.007732	 0.075676	-13.287650	-2.354709	 179.701300	 1.456247	-13.248360	-0.776059	-4.731049	 71.875370	-1.622605	-2.385833	 28.452760	 0.000004	 13.207490	-3.862799	-179.607600	-1.431120	-14.101350	 0.812819	 5.235697	 71.282910	 0.894668	 2.384658	 28.388730	 0.000004	-1.715100	 2.737779	 0.192472	-0.772256	 3.581531	-0.361538	 2.366591	-4.549663	 0.541517	-91.776180	 78.527450	 180.000000	 66.747820	 45.449560	-49.260040	-8.147507	 1.002804	-2.503013	-30.361430	-19.797030	-4.528584	-2.635965	 4.993658	 6.788941	-5.165319	 0.784187	 3.516649	-5.225038	 0.466231	 0.424329	-0.000002	-3.783157	-0.089647	 2.300312	 5.064629	-0.101761	 89.782070	 78.203890	-180.000000	 8.989654	 14.426160	 86.267280	-33.429520	-4.585518	 14.015900	-0.645320	-20.121230	-6.595030	 6.112037	 4.509576	-0.364401	 4.968462	 1.518543	-9.347576	 5.168945	 0.703820	 2.021906
 0.000124	 0.043794	 1.270956	-0.002757	 0.006494	 0.106672	-13.289010	-2.237958	 179.655100	 1.460256	-12.956310	-0.758346	-4.677223	 71.648830	-1.678137	-2.385833	 28.452760	 0.000004	 13.209370	-3.846398	-179.590600	-1.435918	-13.768590	 0.792869	 5.229495	 70.928170	 0.894749	 2.384658	 28.388730	 0.000004	-2.625532	 2.740005	 0.204751	-1.233604	 3.578921	-0.463357	 3.745613	-4.511839	 0.804697	-91.776250	 78.527470	-180.000000	 66.814060	 45.328530	-48.763900	-8.117800	 1.537713	-3.840289	-30.427870	-19.956630	-4.541850	-2.635965	 4.993658	 6.788941	-5.165319	 0.784187	 3.516649	-5.225038	 0.466231	 0.424329	-0.000002	-3.783157	-0.089647	 3.644214	 4.978549	-0.158493	 89.782110	 78.203890	 180.000000	 8.236196	 15.212020	 85.779990	-31.722950	-4.305357	 14.622950	-0.414947	-20.893910	-6.522306	 6.112037	 4.509576	-0.364401	 4.968462	 1.518543	-9.347576	 5.168945	 0.703820	 2.021906
 0.000189	 0.046532	 1.272030	-0.002061	 0.004568	 0.128805	-13.289470	-2.049345	 179.611600	 1.466153	-12.514230	-0.731616	-4.593187	 71.346930	-1.765707	-2.385833	 28.452760	 0.000004	 13.209090	-3.545860	-179.543900	-1.448394	-12.859880	 0.738673	 5.096871	 70.282980	 1.029282	 2.384658	 28.388730	 0.000004	-3.372144	 2.743004	 0.249480	-1.608530	 3.578597	-0.603810	 4.873976	-4.469031	 1.045095	-91.776120	 78.527430	 179.999900	 67.092500	 45.293400	-48.810620	-8.094277	 1.854745	-4.634129	-30.495440	-20.090790	-4.554839	-2.635965	 4.993658	 6.788941	-5.165319	 0.784187	 3.516649	-5.225038	 0.466231	 0.424329	-0.000002	-3.783157	-0.089647	 4.743747	 4.878393	-0.202201	 89.782030	 78.203900	-180.000000	 4.237568	 16.773770	 85.061480	-29.418520	-3.735594	 14.911560	 1.211725	-22.159220	-6.365913	 6.112037	 4.509576	-0.364401	 4.968462	 1.518543	-9.347576	 5.168945	 0.703820	 2.021906
 0.000228	 0.049302	 1.273394	-0.002199	 0.003427	 0.148109	-13.290580	-2.103748	 179.590200	 1.465393	-12.571860	-0.735094	-4.617722	 71.300500	-1.738603	-2.385833	 28.452760	 0.000004	 13.208970	-3.223368	-179.492200	-1.460517	-11.905440	 0.682174	 4.964392	 69.614130	 1.164435	 2.384658	 28.388730	 0.000004	-3.941864	 2.744251	 0.280983	-1.892484	 3.582654	-0.711901	 5.730333	-4.434404	 1.227622	-91.776250	 78.527430	-180.000000	 67.597440	 45.343200	-49.329410	-8.079171	 2.033628	-5.082606	-30.560850	-20.180200	-4.566887	-2.635965	 4.993658	 6.788941	-5.165319	 0.784187	 3.516649	-5.225038	 0.466231	 0.424329	-0.000002	-3.783157	-0.089647	 5.579489	 4.782566	-0.233196	 89.782160	 78.203900	 179.999900	-2.181629	 19.427830	 83.156160	-26.765930	-3.121796	 15.520010	 4.012046	-23.695030	-5.992124	 6.112037	 4.509576	-0.364401	 4.968462	 1.518543	-9.347576	 5.168945	 0.703820	 2.021906
